<?xml version="1.0" encoding="UTF-8"?>
<svg id="Layer_1" xmlns="http://www.w3.org/2000/svg" version="1.1" viewBox="0 0 32 16">
  <!-- Generator: Adobe Illustrator 29.3.1, SVG Export Plug-In . SVG Version: 2.1.0 Build 151)  -->
  <defs>
    <style>
      .st0 {
        fill: #bab4d9;
        stroke: #000;
      }

      .st0, .st1 {
        fill-opacity: .5;
      }

      .st2, .st1 {
        fill: #fff;
      }

      .st1 {
        opacity: .3;
      }

      .st3 {
        fill: none;
        stroke: #fff;
      }
    </style>
  </defs>
  <rect class="st0" x="2.5" y="2.5" width="11" height="11" rx="2" ry="2"/>
  <rect x="5" y="5" width="6" height="6"/>
  <rect y="5.5" width="2" height="2"/>
  <rect y="8.5" width="2" height="2"/>
  <rect x="14" y="5.5" width="2" height="2"/>
  <rect x="14" y="8.5" width="2" height="2"/>
  <rect x="8.5" width="2" height="2"/>
  <rect x="5.5" width="2" height="2"/>
  <rect x="8.5" y="14" width="2" height="2"/>
  <rect x="5.5" y="14" width="2" height="2"/>
  <rect class="st1" x="18.5" y="2.5" width="11" height="11" rx="2" ry="2"/>
  <rect class="st2" x="21" y="5" width="6" height="6"/>
  <rect class="st2" x="16" y="5.5" width="2" height="2"/>
  <rect class="st2" x="16" y="8.5" width="2" height="2"/>
  <rect class="st2" x="30" y="5.5" width="2" height="2"/>
  <rect class="st2" x="30" y="8.5" width="2" height="2"/>
  <rect class="st2" x="24.5" width="2" height="2"/>
  <rect class="st2" x="21.5" width="2" height="2"/>
  <rect class="st2" x="24.5" y="14" width="2" height="2"/>
  <rect class="st2" x="21.5" y="14" width="2" height="2"/>
  <rect class="st3" x="18.5" y="2.5" width="11" height="11" rx="2" ry="2"/>
</svg>