<?xml version="1.0" encoding="UTF-8"?>
<svg xmlns="http://www.w3.org/2000/svg" xmlns:xlink="http://www.w3.org/1999/xlink" version="1.1" viewBox="0 0 512 512">
  <!-- Generator: Adobe Illustrator 29.3.1, SVG Export Plug-In . SVG Version: 2.1.0 Build 151)  -->
  <defs>
    <style>
      .st0 {
        fill: #582acb;
      }

      .st1, .st2 {
        isolation: isolate;
      }

      .st3 {
        fill: #fff;
        fill-opacity: .9;
        stroke: #fff;
        stroke-width: .2px;
      }

      .st4 {
        fill: url(#linear-gradient1);
      }

      .st4, .st2 {
        fill-opacity: .1;
      }

      .st2 {
        fill: url(#linear-gradient);
        mix-blend-mode: color-burn;
      }
    </style>
    <linearGradient id="linear-gradient" x1="256" y1="514" x2="256" y2="2" gradientTransform="translate(0 514) scale(1 -1)" gradientUnits="userSpaceOnUse">
      <stop offset="0" stop-color="#000" stop-opacity="0"/>
      <stop offset="1" stop-color="#000"/>
    </linearGradient>
    <linearGradient id="linear-gradient1" x1="256" y1="514" x2="256" y2="2" gradientTransform="translate(0 514) scale(1 -1)" gradientUnits="userSpaceOnUse">
      <stop offset="0" stop-color="#fff"/>
      <stop offset="1" stop-color="#fff" stop-opacity="0"/>
    </linearGradient>
  </defs>
  <g class="st1">
    <g id="Layer_1">
      <path class="st0" d="M0,153.6c0-53.8,0-80.6,10.5-101.2,9.2-18.1,23.9-32.7,42-42C73,0,99.8,0,153.6,0h204.8c53.8,0,80.6,0,101.2,10.5,18.1,9.2,32.8,23.9,42,42,10.5,20.5,10.5,47.4,10.5,101.2v204.8c0,53.8,0,80.6-10.5,101.2-9.2,18.1-23.9,32.8-42,42-20.5,10.5-47.4,10.5-101.2,10.5h-204.8c-53.8,0-80.6,0-101.2-10.5-18.1-9.2-32.7-23.9-42-42C0,439,0,412.2,0,358.4v-204.8Z"/>
      <path class="st2" d="M0,153.6c0-53.8,0-80.6,10.5-101.2,9.2-18.1,23.9-32.7,42-42C73,0,99.8,0,153.6,0h204.8c53.8,0,80.6,0,101.2,10.5,18.1,9.2,32.8,23.9,42,42,10.5,20.5,10.5,47.4,10.5,101.2v204.8c0,53.8,0,80.6-10.5,101.2-9.2,18.1-23.9,32.8-42,42-20.5,10.5-47.4,10.5-101.2,10.5h-204.8c-53.8,0-80.6,0-101.2-10.5-18.1-9.2-32.7-23.9-42-42C0,439,0,412.2,0,358.4v-204.8Z"/>
      <path class="st4" d="M0,153.6c0-53.8,0-80.6,10.5-101.2,9.2-18.1,23.9-32.7,42-42C73,0,99.8,0,153.6,0h204.8c53.8,0,80.6,0,101.2,10.5,18.1,9.2,32.8,23.9,42,42,10.5,20.5,10.5,47.4,10.5,101.2v204.8c0,53.8,0,80.6-10.5,101.2-9.2,18.1-23.9,32.8-42,42-20.5,10.5-47.4,10.5-101.2,10.5h-204.8c-53.8,0-80.6,0-101.2-10.5-18.1-9.2-32.7-23.9-42-42C0,439,0,412.2,0,358.4v-204.8Z"/>
      <path class="st3" d="M88,138h-2v229c0,8.2,6.4,15,14.5,15h133.5v-23.5h-70.9c-9.2,0-16.8-7.8-16.8-17.5v-203.1h-58.3Z"/>
      <path class="st3" d="M264.4,380v2h143c19.1,0,34.6-15.9,34.6-35.3v-66.7c0-19.4-15.5-35.3-34.6-35.3h-75c-13.2,0-24.1-11-24.1-24.7v-33.3c0-13.6,10.8-24.7,24.1-24.7h99.8v-24h-135.6c-19.1,0-34.6,15.9-34.6,35.3v53.3c0,19.4,15.5,35.3,34.6,35.3h75c13.2,0,24.1,11,24.1,24.7v46.7c0,13.6-10.8,24.7-24.1,24.7h-107.2v22Z"/>
    </g>
  </g>
</svg>