<?xml version="1.0" encoding="UTF-8"?>
<svg id="Layer_1" xmlns="http://www.w3.org/2000/svg" version="1.1" viewBox="0 0 32 16">
  <!-- Generator: Adobe Illustrator 29.3.1, SVG Export Plug-In . SVG Version: 2.1.0 Build 151)  -->
  <defs>
    <style>
      .st0 {
        opacity: .6;
      }

      .st0, .st1 {
        fill: #fff;
      }

      .st2 {
        fill: #bab4d9;
      }
    </style>
  </defs>
  <rect class="st2" x=".5" y="4.5" width="3" height="3"/>
  <rect class="st2" x=".5" y=".5" width="3" height="3"/>
  <rect x=".5" y="8.5" width="3" height="3"/>
  <rect class="st2" x=".5" y="12.5" width="3" height="3"/>
  <rect class="st2" x="4.5" y="4.5" width="3" height="3"/>
  <rect class="st2" x="4.5" y=".5" width="3" height="3"/>
  <rect x="4.5" y="8.5" width="3" height="3"/>
  <rect class="st2" x="4.5" y="12.5" width="3" height="3"/>
  <rect x="8.5" y="4.5" width="3" height="3"/>
  <rect x="8.5" y=".5" width="3" height="3"/>
  <rect class="st2" x="12.5" y="4.5" width="3" height="3"/>
  <rect class="st2" x="12.5" y=".5" width="3" height="3"/>
  <rect x="8.5" y="8.5" width="3" height="3"/>
  <rect x="8.5" y="12.5" width="3" height="3"/>
  <rect x="12.5" y="8.5" width="3" height="3"/>
  <rect class="st2" x="12.5" y="12.5" width="3" height="3"/>
  <rect class="st0" x="16.5" y="4.5" width="3" height="3"/>
  <rect class="st0" x="16.5" y=".5" width="3" height="3"/>
  <rect class="st1" x="16.5" y="8.5" width="3" height="3"/>
  <rect class="st0" x="16.5" y="12.5" width="3" height="3"/>
  <rect class="st0" x="20.5" y="4.5" width="3" height="3"/>
  <rect class="st0" x="20.5" y=".5" width="3" height="3"/>
  <rect class="st1" x="20.5" y="8.5" width="3" height="3"/>
  <rect class="st0" x="20.5" y="12.5" width="3" height="3"/>
  <rect class="st1" x="24.5" y="4.5" width="3" height="3"/>
  <rect class="st1" x="24.5" y=".5" width="3" height="3"/>
  <rect class="st0" x="28.5" y="4.5" width="3" height="3"/>
  <rect class="st0" x="28.5" y=".5" width="3" height="3"/>
  <rect class="st1" x="24.5" y="8.5" width="3" height="3"/>
  <rect class="st1" x="24.5" y="12.5" width="3" height="3"/>
  <rect class="st1" x="28.5" y="8.5" width="3" height="3"/>
  <rect class="st0" x="28.5" y="12.5" width="3" height="3"/>
</svg>