<svg id="Layer_1" xmlns="http://www.w3.org/2000/svg" version="1.1" viewBox="0 0 16 16"><defs><style>.st0{opacity:.6}.st0,.st1{fill:#fff}</style></defs><path class="st0" d="M.5 4.5h3v3h-3zm0-4h3v3h-3z"/><path class="st1" d="M.5 8.5h3v3h-3z"/><path class="st0" d="M.5 12.5h3v3h-3zm4-8h3v3h-3zm0-4h3v3h-3z"/><path class="st1" d="M4.5 8.5h3v3h-3z"/><path class="st0" d="M4.5 12.5h3v3h-3z"/><path class="st1" d="M8.5 4.5h3v3h-3zm0-4h3v3h-3z"/><path class="st0" d="M12.5 4.5h3v3h-3zm0-4h3v3h-3z"/><path class="st1" d="M8.5 8.5h3v3h-3zm0 4h3v3h-3zm4-4h3v3h-3z"/><path class="st0" d="M12.5 12.5h3v3h-3z"/></svg>