<svg width="15" height="16" viewBox="0 0 15 16" fill="none" xmlns="http://www.w3.org/2000/svg">
<rect y="0.5" width="3" height="3" fill="#BAB4D9"/>
<rect y="4.5" width="3" height="3" fill="#BAB4D9"/>
<rect y="8.5" width="3" height="3" fill="black"/>
<rect y="12.5" width="3" height="3" fill="#BAB4D9"/>
<rect x="4" y="0.5" width="3" height="3" fill="#BAB4D9"/>
<rect x="4" y="4.5" width="3" height="3" fill="#BAB4D9"/>
<rect x="4" y="8.5" width="3" height="3" fill="black"/>
<rect x="4" y="12.5" width="3" height="3" fill="#BAB4D9"/>
<rect x="8" y="0.5" width="3" height="3" fill="black"/>
<rect x="12" y="0.5" width="3" height="3" fill="#BAB4D9"/>
<rect x="8" y="4.5" width="3" height="3" fill="black"/>
<rect x="12" y="4.5" width="3" height="3" fill="#BAB4D9"/>
<rect x="8" y="8.5" width="3" height="3" fill="black"/>
<rect x="8" y="12.5" width="3" height="3" fill="black"/>
<rect x="12" y="8.5" width="3" height="3" fill="black"/>
<rect x="12" y="12.5" width="3" height="3" fill="#BAB4D9"/>
</svg>
