<svg width="15" height="15" viewBox="0 0 15 15" fill="none" xmlns="http://www.w3.org/2000/svg">
<g clip-path="url(#clip0_142_49)">
<path d="M3 0H0V3H3V0Z" fill="#BAB4D9"/>
<path d="M3 4H0V7H3V4Z" fill="#BAB4D9"/>
<path d="M3 8H0V11H3V8Z" fill="black"/>
<path d="M3 12H0V15H3V12Z" fill="#BAB4D9"/>
<path d="M7 0H4V3H7V0Z" fill="#BAB4D9"/>
<path d="M7 4H4V7H7V4Z" fill="#BAB4D9"/>
<path d="M7 8H4V11H7V8Z" fill="black"/>
<path d="M7 12H4V15H7V12Z" fill="#BAB4D9"/>
<path d="M11 0H8V3H11V0Z" fill="black"/>
<path d="M15 0H12V3H15V0Z" fill="#BAB4D9"/>
<path d="M11 4H8V7H11V4Z" fill="black"/>
<path d="M15 4H12V7H15V4Z" fill="#BAB4D9"/>
<path d="M11 8H8V11H11V8Z" fill="black"/>
<path d="M11 12H8V15H11V12Z" fill="black"/>
<path d="M15 8H12V11H15V8Z" fill="black"/>
<path d="M15 12H12V15H15V12Z" fill="#BAB4D9"/>
</g>
<defs>
<clipPath id="clip0_142_49">
<rect width="15" height="15" fill="white"/>
</clipPath>
</defs>
</svg>
