<svg width="16" height="16" viewBox="0 0 16 16" fill="none" xmlns="http://www.w3.org/2000/svg">
<rect x="0.5" y="4.5" width="3" height="3" fill="#BAB4D9"/>
<rect x="0.5" y="0.5" width="3" height="3" fill="#BAB4D9"/>
<rect x="0.5" y="8.5" width="3" height="3" fill="black"/>
<rect x="0.5" y="12.5" width="3" height="3" fill="#BAB4D9"/>
<rect x="4.5" y="4.5" width="3" height="3" fill="#BAB4D9"/>
<rect x="4.5" y="0.5" width="3" height="3" fill="#BAB4D9"/>
<rect x="4.5" y="8.5" width="3" height="3" fill="black"/>
<rect x="4.5" y="12.5" width="3" height="3" fill="#BAB4D9"/>
<rect x="8.5" y="4.5" width="3" height="3" fill="black"/>
<rect x="8.5" y="0.5" width="3" height="3" fill="black"/>
<rect x="12.5" y="4.5" width="3" height="3" fill="#BAB4D9"/>
<rect x="12.5" y="0.5" width="3" height="3" fill="#BAB4D9"/>
<rect x="8.5" y="8.5" width="3" height="3" fill="black"/>
<rect x="8.5" y="12.5" width="3" height="3" fill="black"/>
<rect x="12.5" y="8.5" width="3" height="3" fill="black"/>
<rect x="12.5" y="12.5" width="3" height="3" fill="#BAB4D9"/>
</svg>
